<svg fill="#000000" xmlns="http://www.w3.org/2000/svg"  viewBox="0 0 50 50" width="24px" height="24px"><path fill="none" stroke="#000000" stroke-miterlimit="10" stroke-width="2" d="M39 1L49 1 49 49 39 49M49 25L39 25M49 17L44 17M49 9L44 9M49 41L44 41M49 33L44 33"/><path fill="none" d="M4.224,24h23.069c-3.289-8.895-9.321-18.086-11.496-21.258C13.609,5.912,7.535,15.105,4.224,24z"/><path d="M29.425,24C25.442,12.705,17.072,1.052,16.61,0.414l-0.807-1.115l-0.811,1.112C14.526,1.05,6.098,12.703,2.089,24C0.828,27.553,0,31.071,0,34.2C0,42.912,7.043,50,15.7,50c8.712,0,15.8-7.088,15.8-15.8C31.5,31.071,30.677,27.553,29.425,24z M4.224,24c3.312-8.895,9.386-18.088,11.574-21.258C17.972,5.914,24.004,15.105,27.293,24H4.224z"/></svg>