<svg fill="#000000" xmlns="http://www.w3.org/2000/svg"  viewBox="0 0 50 50" width="24px" height="24px"><line x1="22" x2="26" y1="14" y2="14" fill="none" stroke="#000000" stroke-linecap="round" stroke-linejoin="round" stroke-miterlimit="10" stroke-width="2"/><line x1="22" x2="26" y1="18" y2="18" fill="none" stroke="#000000" stroke-linecap="round" stroke-linejoin="round" stroke-miterlimit="10" stroke-width="2"/><line x1="22" x2="26" y1="22" y2="22" fill="none" stroke="#000000" stroke-linecap="round" stroke-linejoin="round" stroke-miterlimit="10" stroke-width="2"/><line x1="22" x2="26" y1="26" y2="26" fill="none" stroke="#000000" stroke-linecap="round" stroke-linejoin="round" stroke-miterlimit="10" stroke-width="2"/><polyline fill="none" stroke="#000000" stroke-linecap="round" stroke-linejoin="round" stroke-miterlimit="10" stroke-width="2" points="32,25 37,30 42,25"/><line x1="37" x2="37" y1="30" y2="7" fill="none" stroke="#000000" stroke-linecap="round" stroke-linejoin="round" stroke-miterlimit="10" stroke-width="2"/><path d="M23,28.206V11h3c0.553,0,1-0.448,1-1s-0.447-1-1-1h-3V6c0-2.757-2.243-5-5-5s-5,2.243-5,5v22.206	C9.334,30.077,7,33.852,7,38c0,6.065,4.935,11,11,11s11-4.935,11-11C29,33.852,26.666,30.077,23,28.206z M18,3c1.654,0,3,1.346,3,3	v3h-6V6C15,4.346,16.346,3,18,3z"/></svg>