<svg fill="#000000" xmlns="http://www.w3.org/2000/svg"  viewBox="0 0 50 50" width="24px" height="24px"><path d="M49 48H34.949c-.504-5.046-4.773-9-9.949-9-5.177 0-9.446 3.954-9.949 9H1c-.552 0-1 .447-1 1s.448 1 1 1h48c.553 0 1-.447 1-1S49.553 48 49 48zM24 29v6c0 .553.448 1 1 1s1-.447 1-1v-6c0-.553-.448-1-1-1S24 28.447 24 29zM34.9 40.1c.256 0 .512-.098.707-.293l4.199-4.199c.391-.391.391-1.023 0-1.414s-1.023-.391-1.414 0l-4.199 4.199c-.391.391-.391 1.023 0 1.414C34.389 40.002 34.645 40.1 34.9 40.1zM14.393 39.807c.195.195.451.293.707.293s.512-.098.707-.293c.391-.391.391-1.023 0-1.414l-4.2-4.199c-.391-.391-1.023-.391-1.414 0s-.391 1.023 0 1.414L14.393 39.807zM25 20.914l7.607-7.607c.391-.391.391-1.023 0-1.414s-1.023-.391-1.414 0L26 17.086V1c0-.552-.448-1-1-1s-1 .448-1 1v16.086l-5.193-5.193c-.391-.391-1.023-.391-1.414 0s-.391 1.023 0 1.414L25 20.914z"/></svg>