<svg fill="#000000" xmlns="http://www.w3.org/2000/svg"  viewBox="0 0 50 50" width="24px" height="24px"><path d="M3 10c-1.654 0-3-1.346-3-3s1.346-3 3-3 3 1.346 3 3S4.654 10 3 10zM3 12c-.342 0-.677-.035-1-.101V45h2V11.899C3.677 11.965 3.342 12 3 12z"/><path d="M4 9.816V9H2v.815C2.314 9.928 2.647 10 3 10S3.686 9.928 4 9.816zM47.647 9.781l-.917.256c-4.551 1.272-8.33 1.89-11.554 1.89-4.722 0-7.658-1.337-10.766-2.752-3.537-1.611-7.195-3.276-13.618-3.276-.915 0-1.878.035-2.863.104L7 6.068v18.581l1.462-.762c2.301-1.198 4.672-1.756 7.462-1.756 2.191 0 4.421.334 6.782.689 2.666.4 5.422.814 8.477.814 6.295 0 12.127-1.84 18.353-5.79l.66-.419L47.647 9.781zM39.98 13.551l2.101 5.918c-2.198.887-4.383 1.503-6.597 1.84l-.462-7.387c.054 0 .101.005.154.005C36.666 13.927 38.264 13.799 39.98 13.551zM17.308 20.178l1.243-11.189c1.867.569 3.463 1.292 5.031 2.006.66.301 1.33.601 2.016.892l-1.795 9.073c-.266-.04-.535-.078-.798-.117C21.048 20.548 19.179 20.277 17.308 20.178z"/></svg>