<svg fill="#000000" xmlns="http://www.w3.org/2000/svg"  viewBox="0 0 50 50" width="64px" height="64px"><path d="M27 44c-.256 0-.512-.098-.707-.293-.391-.391-.391-1.023 0-1.414l6-6c.391-.391 1.023-.391 1.414 0s.391 1.023 0 1.414l-6 6C27.512 43.902 27.256 44 27 44zM7 44c-.256 0-.512-.098-.707-.293-.391-.391-.391-1.023 0-1.414l6-6c.391-.391 1.023-.391 1.414 0s.391 1.023 0 1.414l-6 6C7.512 43.902 7.256 44 7 44zM18 43c-.256 0-.512-.098-.707-.293-.391-.391-.391-1.023 0-1.414l7-7c.391-.391 1.023-.391 1.414 0s.391 1.023 0 1.414l-7 7C18.512 42.902 18.256 43 18 43zM36 32H12c-4.411 0-8-3.589-8-8s3.589-8 8-8c.004 0 .009 0 .014 0C12.004 15.831 12 15.665 12 15.5 12 9.71 16.71 5 22.5 5c4.76 0 8.818 3.13 10.085 7.603C33.678 12.203 34.822 12 36 12c5.514 0 10 4.486 10 10C46 27.514 41.514 32 36 32z"/></svg>