<svg fill="#000000" xmlns="http://www.w3.org/2000/svg"  viewBox="0 0 50 50" width="64px" height="64px"><path d="M32 41c-.256 0-.512-.098-.707-.293-.391-.391-.391-1.023 0-1.414l4-4c.391-.391 1.023-.391 1.414 0s.391 1.023 0 1.414l-4 4C32.512 40.902 32.256 41 32 41zM8 40c-.256 0-.512-.098-.707-.293-.391-.391-.391-1.023 0-1.414l4-4c.391-.391 1.023-.391 1.414 0s.391 1.023 0 1.414l-4 4C8.512 39.902 8.256 40 8 40zM18 35L23 35 17.923 43 29 33 24 33 26 31 21.111 31zM36 11c-1.178 0-2.322.203-3.415.603C31.318 7.13 27.26 4 22.5 4 16.71 4 12 8.71 12 14.5c0 .165.004.331.014.5-.004 0-.009 0-.014 0-4.411 0-8 3.589-8 8s3.589 8 8 8h9.111L25 26h6l-5 5h10c5.514 0 10-4.486 10-10C46 15.486 41.514 11 36 11z"/></svg>