<svg fill="#000000" xmlns="http://www.w3.org/2000/svg"  viewBox="0 0 50 50" width="64px" height="64px"><path d="M40.714,25.863C40.055,25.957,39.51,26,39,26c-6.617,0-12-5.383-12-12c0-0.51,0.043-1.055,0.137-1.713l0.187-1.319l-1.318,0.189c-1.21,0.173-2.373,0.517-3.476,0.986c-0.109,0.037-0.217,0.06-0.328,0.11c-2.311,1.053-4.279,2.721-5.711,4.788c-0.019,0.027-0.039,0.054-0.057,0.082c-0.291,0.425-0.557,0.868-0.799,1.325c-0.014,0.026-0.031,0.048-0.045,0.074c-0.005,0.01-0.004,0.021-0.009,0.03c-0.559,1.074-0.968,2.234-1.236,3.448H24c0.552,0,1,0.448,1,1s-0.448,1-1,1h-9.938C14.038,24.333,14,24.661,14,25c0,1.031,0.119,2.032,0.33,3H30c0.553,0,1,0.447,1,1s-0.447,1-1,1H14.936c0.562,1.467,1.354,2.818,2.347,4H24c0.552,0,1,0.447,1,1s-0.448,1-1,1h-4.642c2.381,1.873,5.377,3,8.642,3c0.409,0,0.813-0.021,1.213-0.057c0.086-0.007,0.17-0.02,0.255-0.028c0.22-0.023,0.44-0.042,0.657-0.075c0.102-0.016,0.2-0.039,0.301-0.059c0.095-0.018,0.189-0.037,0.284-0.057c0.022-0.005,0.046-0.01,0.068-0.016c5.671-1.166,10.22-5.81,11.065-11.714l0.188-1.318L40.714,25.863z"/><path d="M9 22c-.552 0-1 .448-1 1s.448 1 1 1h5.062c.049-.681.139-1.35.282-2H9zM17.283 34H9c-.552 0-1 .447-1 1s.448 1 1 1h10.358C18.601 35.404 17.903 34.737 17.283 34z"/></svg>