<svg fill="#000000" xmlns="http://www.w3.org/2000/svg"  viewBox="0 0 50 50" width="50px" height="50px"><path fill="none" stroke="#000000" stroke-linecap="round" stroke-miterlimit="10" stroke-width="2" d="M17 10L17 5M1 21L6 21M24.778 13.221L28.314 9.686M5.687 32.313L9.222 28.777M5.687 9.686L9.222 13.222"/><path d="M41,41H20c-3.86,0-7-3.141-7-7c0-3.541,2.643-6.477,6.06-6.938C19.02,26.706,19,26.352,19,26c0-5.514,4.486-10,10-10c4.566,0,8.444,3.013,9.626,7.316C39.395,23.106,40.189,23,41,23c4.963,0,9,4.037,9,9S45.963,41,41,41z"/><path d="M13.249,28.07c1.003-1.144,2.29-2.039,3.761-2.56c0.169-4.204,2.519-7.846,5.939-9.854c-1.466-1.63-3.584-2.662-5.949-2.662c-4.421,0-8.005,3.584-8.005,8.005C8.995,24.065,10.719,26.726,13.249,28.07z"/></svg>