<svg fill="#000000" xmlns="http://www.w3.org/2000/svg"  viewBox="0 0 50 50" width="50px" height="50px"><path fill="none" stroke="#000000" stroke-linecap="round" stroke-miterlimit="10" stroke-width="2" d="M12 7L12 11M10 9L14 9M4 19L4 21M3 20L5 20"/><path d="M36,41H15c-3.86,0-7-3.141-7-7c0-3.541,2.643-6.477,6.06-6.938C14.02,26.706,14,26.352,14,26c0-5.514,4.486-10,10-10c4.566,0,8.444,3.013,9.626,7.316C34.395,23.106,35.189,23,36,23c4.963,0,9,4.037,9,9S40.963,41,36,41z"/><path d="M46.764,16.824C46.179,16.941,45.585,17,45,17c-4.963,0-9-4.038-9-9c0-0.245,0.019-0.485,0.038-0.725l0.106-1.319l-1.299,0.258c-3.663,0.729-6.772,3.35-8.094,6.789c-0.016,0.034-0.199,0.457-0.383,1.241c3.767,0.762,6.977,3.297,8.561,6.808C35.284,21.017,35.642,21,36,21c3.425,0,6.487,1.574,8.506,4.036c0.117-0.108,0.191-0.182,0.205-0.196c1.883-1.855,3.035-4.326,3.245-6.955l0.105-1.319L46.764,16.824z"/></svg>