<svg fill="#000000" xmlns="http://www.w3.org/2000/svg"  viewBox="0 0 50 50" width="50px" height="50px"><path d="M36,32H12c-4.411,0-8-3.589-8-8s3.589-8,8-8c0.004,0,0.009,0,0.014,0C12.004,15.831,12,15.665,12,15.5C12,9.71,16.71,5,22.5,5c4.76,0,8.818,3.129,10.086,7.603C33.679,12.202,34.822,12,36,12c5.514,0,10,4.486,10,10C46,27.514,41.514,32,36,32z"/><path fill="none" stroke="#000000" stroke-linecap="round" stroke-miterlimit="10" stroke-width="2" d="M8 31L7.706 31.956"/><path fill="none" stroke="#000000" stroke-dasharray="2.3203,4.6406" stroke-linecap="round" stroke-miterlimit="10" stroke-width="2" d="M6.341 36.391L4.976 40.827"/><path fill="none" stroke="#000000" stroke-linecap="round" stroke-miterlimit="10" stroke-width="2" d="M4.294 43.044L4 44M16 31L15.706 31.956"/><path fill="none" stroke="#000000" stroke-dasharray="2.3203,4.6406" stroke-linecap="round" stroke-miterlimit="10" stroke-width="2" d="M14.341 36.391L12.976 40.827"/><path fill="none" stroke="#000000" stroke-linecap="round" stroke-miterlimit="10" stroke-width="2" d="M12.294 43.044L12 44M24 31L23.706 31.956"/><path fill="none" stroke="#000000" stroke-dasharray="2.3203,4.6406" stroke-linecap="round" stroke-miterlimit="10" stroke-width="2" d="M22.341 36.391L20.976 40.827"/><path fill="none" stroke="#000000" stroke-linecap="round" stroke-miterlimit="10" stroke-width="2" d="M20.294 43.044L20 44"/><g><path fill="none" stroke="#000000" stroke-linecap="round" stroke-miterlimit="10" stroke-width="2" d="M32 31L31.706 31.956"/><path fill="none" stroke="#000000" stroke-dasharray="2.3203,4.6406" stroke-linecap="round" stroke-miterlimit="10" stroke-width="2" d="M30.341 36.391L28.977 40.827"/><path fill="none" stroke="#000000" stroke-linecap="round" stroke-miterlimit="10" stroke-width="2" d="M28.294 43.044L28 44"/></g><g><path fill="none" stroke="#000000" stroke-linecap="round" stroke-miterlimit="10" stroke-width="2" d="M36 31L35.706 31.956"/><path fill="none" stroke="#000000" stroke-dasharray="1.5394,3.0788" stroke-linecap="round" stroke-miterlimit="10" stroke-width="2" d="M34.8 34.898L33.895 37.841"/><path fill="none" stroke="#000000" stroke-linecap="round" stroke-miterlimit="10" stroke-width="2" d="M33.441 39.313L33.148 40.268"/></g><g><path fill="none" stroke="#000000" stroke-linecap="round" stroke-miterlimit="10" stroke-width="2" d="M28 31L27.706 31.956"/><path fill="none" stroke="#000000" stroke-dasharray="1.5394,3.0788" stroke-linecap="round" stroke-miterlimit="10" stroke-width="2" d="M26.8 34.898L25.895 37.841"/><path fill="none" stroke="#000000" stroke-linecap="round" stroke-miterlimit="10" stroke-width="2" d="M25.442 39.313L25.148 40.268"/></g><g><path fill="none" stroke="#000000" stroke-linecap="round" stroke-miterlimit="10" stroke-width="2" d="M20 31L19.706 31.956"/><path fill="none" stroke="#000000" stroke-dasharray="1.5394,3.0788" stroke-linecap="round" stroke-miterlimit="10" stroke-width="2" d="M18.8 34.898L17.895 37.841"/><path fill="none" stroke="#000000" stroke-linecap="round" stroke-miterlimit="10" stroke-width="2" d="M17.442 39.313L17.148 40.268"/></g><g><path fill="none" stroke="#000000" stroke-linecap="round" stroke-miterlimit="10" stroke-width="2" d="M12 31L11.706 31.956"/><path fill="none" stroke="#000000" stroke-dasharray="1.5394,3.0788" stroke-linecap="round" stroke-miterlimit="10" stroke-width="2" d="M10.8 34.898L9.895 37.841"/><path fill="none" stroke="#000000" stroke-linecap="round" stroke-miterlimit="10" stroke-width="2" d="M9.442 39.313L9.148 40.268"/></g><g><path fill="none" stroke="#000000" stroke-linecap="round" stroke-miterlimit="10" stroke-width="2" d="M40 31L39.706 31.956"/><path fill="none" stroke="#000000" stroke-dasharray="2.3203,4.6406" stroke-linecap="round" stroke-miterlimit="10" stroke-width="2" d="M38.341 36.391L36.977 40.827"/><path fill="none" stroke="#000000" stroke-linecap="round" stroke-miterlimit="10" stroke-width="2" d="M36.294 43.044L36 44"/></g></svg>