<svg fill="#000000" xmlns="http://www.w3.org/2000/svg"  viewBox="0 0 50 50" width="50px" height="50px"><path d="M16.829,49c-0.393,0-0.765-0.232-0.924-0.617l-1.656-4c-0.211-0.511,0.031-1.096,0.542-1.307c0.508-0.211,1.095,0.031,1.306,0.541l1.656,4c0.211,0.511-0.031,1.096-0.542,1.307C17.085,48.976,16.956,49,16.829,49z"/><path d="M14 47.828c-.393 0-.765-.232-.924-.617-.211-.511.031-1.096.542-1.307l4-1.656c.509-.212 1.095.031 1.306.541.211.511-.031 1.096-.542 1.307l-4 1.656C14.257 47.804 14.128 47.828 14 47.828zM9.829 41c-.393 0-.765-.232-.924-.617l-1.656-4c-.211-.511.031-1.096.542-1.307.509-.213 1.095.031 1.306.541l1.656 4c.211.511-.031 1.096-.542 1.307C10.085 40.976 9.956 41 9.829 41z"/><path d="M7 39.828c-.393 0-.765-.232-.924-.617-.211-.511.031-1.096.542-1.307l4-1.656c.51-.211 1.095.031 1.306.541.211.511-.031 1.096-.542 1.307l-4 1.656C7.257 39.804 7.128 39.828 7 39.828zM26.828 45c-.393 0-.765-.232-.924-.617l-1.656-4c-.211-.511.031-1.096.542-1.307.508-.212 1.095.031 1.306.541l1.656 4c.211.511-.031 1.096-.541 1.307C27.086 44.976 26.956 45 26.828 45z"/><path d="M24 43.828c-.393 0-.765-.232-.924-.617-.211-.511.031-1.096.542-1.307l4-1.656c.509-.21 1.096.031 1.307.541.211.511-.031 1.096-.541 1.307l-4 1.656C24.257 43.804 24.128 43.828 24 43.828zM36.828 49c-.393 0-.765-.232-.924-.617l-1.656-4c-.211-.511.031-1.096.541-1.307.509-.211 1.096.031 1.307.541l1.656 4c.211.511-.031 1.096-.541 1.307C37.086 48.976 36.956 49 36.828 49z"/><path d="M34 47.828c-.393 0-.765-.232-.924-.617-.211-.511.031-1.096.541-1.307l4-1.656c.51-.211 1.096.031 1.307.541.211.511-.031 1.096-.541 1.307l-4 1.656C34.258 47.804 34.128 47.828 34 47.828zM41.828 40c-.393 0-.765-.232-.924-.617l-1.656-4c-.211-.511.031-1.096.541-1.307.51-.21 1.096.031 1.307.541l1.656 4c.211.511-.031 1.096-.541 1.307C42.086 39.976 41.956 40 41.828 40z"/><path d="M39 38.828c-.393 0-.765-.232-.924-.617-.211-.511.031-1.096.541-1.307l4-1.656c.509-.21 1.096.031 1.307.541.211.511-.031 1.096-.541 1.307l-4 1.656C39.258 38.804 39.128 38.828 39 38.828zM36 12c-1.178 0-2.322.203-3.415.603C31.318 8.13 27.26 5 22.5 5 16.71 5 12 9.71 12 15.5c0 .165.004.331.014.5-.004 0-.009 0-.014 0-4.411 0-8 3.589-8 8s3.589 8 8 8h10.5c-.552 0-1-.447-1-1s.448-1 1-1H23v-3.268l-2.829 1.633.25.434c.276.479.112 1.09-.366 1.366-.158.091-.33.134-.499.134-.346 0-.682-.18-.867-.5l-.25-.434-.867.501C17.414 29.957 17.242 30 17.073 30c-.346 0-.682-.18-.867-.5-.276-.479-.112-1.09.366-1.366l.867-.501-.25-.433c-.276-.479-.112-1.09.366-1.366.479-.277 1.089-.113 1.366.366l.25.433L22 25l-2.83-1.634-.249.432c-.186.321-.521.5-.867.5-.169 0-.342-.043-.499-.134-.479-.276-.642-.888-.366-1.366l.249-.432-.866-.5c-.478-.276-.642-.888-.366-1.366s.886-.644 1.366-.366l.867.5.25-.434c.276-.479.888-.643 1.366-.366.479.276.642.888.366 1.366l-.25.434L23 23.268V20h-.5c-.552 0-1-.448-1-1s.448-1 1-1H23v-1c0-.552.448-1 1-1s1 .448 1 1v1h.5c.553 0 1 .448 1 1s-.447 1-1 1H25v3.269l2.83-1.634L27.579 21.2c-.276-.478-.112-1.09.366-1.366.477-.275 1.09-.112 1.366.366l.251.435.867-.501c.477-.276 1.089-.112 1.366.366.276.479.112 1.09-.366 1.366l-.867.5.249.431c.276.478.112 1.09-.366 1.366-.157.091-.329.134-.499.134-.346 0-.682-.179-.867-.5l-.249-.431L26.001 25l2.828 1.633.25-.433c.276-.479.888-.643 1.366-.366s.643.888.366 1.366l-.25.433.868.501c.479.276.643.888.366 1.366-.186.32-.521.5-.867.5-.17 0-.342-.043-.499-.134l-.868-.501-.25.434c-.186.32-.521.5-.867.5-.17 0-.342-.043-.499-.134-.479-.276-.643-.888-.366-1.366l.25-.434L25 26.731V30h.5c.553 0 1 .447 1 1s-.447 1-1 1H36c5.514 0 10-4.486 10-10C46 16.486 41.514 12 36 12zM23 32v1c0 .553.448 1 1 1s1-.447 1-1v-1H23z"/></svg>