<svg fill="#000000" xmlns="http://www.w3.org/2000/svg"  viewBox="0 0 50 50" width="50px" height="50px"><path fill="none" stroke="#000000" stroke-linecap="round" stroke-miterlimit="10" stroke-width="2" d="M24 45L24 39M24 11L24 5M38 25L44 25M33.898 15.102L38.143 10.858M9.857 10.858L14.101 15.102M33.898 34.9L38.143 39.143"/><path d="M6 23c-.552 0-1 .448-1 1s.448 1 1 1h8c0-.685.07-1.354.201-2H6zM11 29c-.552 0-1 .447-1 1s.448 1 1 1h5.014c-.464-.617-.863-1.284-1.176-2H11zM21 35H6c-.552 0-1 .447-1 1s.448 1 1 1h15c.552 0 1-.447 1-1S21.552 35 21 35z"/><path d="M24,15c-4.838,0-8.873,3.436-9.799,8H21c0.552,0,1,0.448,1,1s-0.448,1-1,1h-7c0,1.423,0.302,2.774,0.838,4H26c0.553,0,1,0.447,1,1s-0.447,1-1,1h-9.986c1.825,2.425,4.718,4,7.986,4c5.522,0,10-4.478,10-10C34,19.477,29.522,15,24,15z"/></svg>